<svg xmlns="http://www.w3.org/2000/svg" xmlns:xlink="http://www.w3.org/1999/xlink" width="1640" height="602.75"><rect width="1640" height="602.75" rx="5" ry="5" class="a"/><svg y="0%" x="0%"><circle cx="20" cy="20" r="6" fill="#ff5f58"/><circle cx="40" cy="20" r="6" fill="#ffbd2e"/><circle cx="60" cy="20" r="6" fill="#18c132"/></svg><svg height="542.75" viewBox="0 0 160 54.275" width="1600" x="15" xmlns="http://www.w3.org/2000/svg" xmlns:xlink="http://www.w3.org/1999/xlink" y="50"><style>@keyframes r{0%{transform:translateX(0)}3.35%{transform:translateX(-160px)}3.36%{transform:translateX(-320px)}3.53%{transform:translateX(-480px)}3.72%{transform:translateX(-640px)}3.73%{transform:translateX(-800px)}11.91%{transform:translateX(-960px)}11.92%{transform:translateX(-1280px)}12.99%{transform:translateX(-1440px)}14.21%{transform:translateX(-1760px)}15.73%{transform:translateX(-2080px)}21.18%{transform:translateX(-2240px)}29.13%{transform:translateX(-2560px)}31.24%{transform:translateX(-2720px)}33.11%{transform:translateX(-3040px)}35.24%{transform:translateX(-3200px)}37.19%{transform:translateX(-3520px)}38.98%{transform:translateX(-3680px)}40.63%{transform:translateX(-3840px)}42.33%{transform:translateX(-4160px)}44.02%{transform:translateX(-4320px)}44.03%{transform:translateX(-4480px)}45.98%{transform:translateX(-4800px)}47.94%{transform:translateX(-5120px)}50.24%{transform:translateX(-5280px)}59.95%{transform:translateX(-5600px)}67.48%{transform:translateX(-5760px)}67.49%{transform:translateX(-5920px)}76.3%{transform:translateX(-6240px)}76.51%{transform:translateX(-6400px)}77.03%{transform:translateX(-6560px)}78.86%{transform:translateX(-6720px)}85.34%{transform:translateX(-7040px)}85.35%{transform:translateX(-7200px)}85.37%{transform:translateX(-7360px)}85.42%{transform:translateX(-7680px)}85.43%{transform:translateX(-7840px)}85.44%{transform:translateX(-8000px)}88.88%{transform:translateX(-8320px)}88.97%{transform:translateX(-8640px)}89.12%{transform:translateX(-8960px)}to{transform:translateX(-9440px)}}.a{fill:#292a44}.f,.g,.h{white-space:pre}.f{fill:#f2e7b7;font-weight:700}.g,.h{fill:#e8e6ed}.h{fill:#56d3c2}.h,.i{font-weight:700}.i,.j,.k,.l{fill:#04dbb5;white-space:pre}.k,.l{fill:#4d4f68}.l{fill:#f2e7b7}.m{fill:#4d4f68}.n,.o,.t{white-space:pre}.n{fill:#ccf;font-weight:700}.o,.t{fill:#62d6e8}.t{fill:#d75}</style><g font-family="Monaco,Consolas,Menlo,'Bitstream Vera Sans Mono','Powerline Symbols',monospace" font-size="1.67"><defs><symbol id="1"><text y="1.67" class="f">demartini</text><text x="10.02" y="1.67" class="g">in</text><text x="13.026" y="1.67" class="h">~</text><text x="15.03" y="1.67" class="g">at</text><text x="18.036" y="1.67" class="f">13:33:01</text></symbol><symbol id="2"><text y="1.67" class="i">❯</text></symbol><symbol id="3"><text y="1.67" class="i">❯</text><text x="2.004" y="1.67" class="j">emc</text><text x="6.012" y="1.67" class="k">help</text></symbol><symbol id="4"><text y="1.67" class="g">bash</text><text x="6.012" y="1.67" class="g">(</text><text x="7.014" y="1.67" class="l">Opens</text><text x="13.026" y="1.67" class="l">the</text><text x="17.034" y="1.67" class="l">Bash</text><text x="22.044" y="1.67" class="l">config</text><text x="29.058" y="1.67" class="l">file.</text><text x="34.068" y="1.67" class="g">)</text><text x="37.074" y="1.67" class="g">gpg</text><text x="49.098" y="1.67" class="g">(</text><text x="50.1" y="1.67" class="l">Opens</text><text x="56.112" y="1.67" class="l">the</text><text x="60.12" y="1.67" class="l">GPG</text><text x="64.128" y="1.67" class="l">config</text><text x="71.142" y="1.67" class="l">file.</text><text x="76.152" y="1.67" class="g">)</text><text x="79.158" y="1.67" class="g">nvim</text><text x="91.182" y="1.67" class="g">(</text><text x="92.184" y="1.67" class="l">Opens</text><text x="98.196" y="1.67" class="l">the</text><text x="102.204" y="1.67" class="l">Neovim</text><text x="109.218" y="1.67" class="l">config</text><text x="116.232" y="1.67" class="l">file.</text><text x="121.242" y="1.67" class="g">)</text><text x="124.248" y="1.67" class="g">version</text><text x="133.266" y="1.67" class="g">(</text><text x="134.268" y="1.67" class="l">Show</text><text x="139.278" y="1.67" class="l">the</text><text x="143.286" y="1.67" class="l">current</text><text x="151.302" y="1.67" class="l">version.</text><text x="159.318" y="1.67" class="g">)</text></symbol><symbol id="5"><text y="1.67" class="g">fish</text><text x="6.012" y="1.67" class="g">(</text><text x="7.014" y="1.67" class="l">Opens</text><text x="13.026" y="1.67" class="l">the</text><text x="17.034" y="1.67" class="l">Fish</text><text x="22.044" y="1.67" class="l">config</text><text x="29.058" y="1.67" class="l">file.</text><text x="34.068" y="1.67" class="g">)</text><text x="37.074" y="1.67" class="g">gpga</text><text x="43.086" y="1.67" class="g">(</text><text x="44.088" y="1.67" class="l">Opens</text><text x="50.1" y="1.67" class="l">the</text><text x="54.108" y="1.67" class="l">GPG</text><text x="58.116" y="1.67" class="l">agent</text><text x="64.128" y="1.67" class="l">config</text><text x="71.142" y="1.67" class="l">file.</text><text x="76.152" y="1.67" class="g">)</text><text x="79.158" y="1.67" class="g">starship</text><text x="89.178" y="1.67" class="g">(</text><text x="90.18" y="1.67" class="l">Opens</text><text x="96.192" y="1.67" class="l">the</text><text x="100.2" y="1.67" class="l">starship</text><text x="109.218" y="1.67" class="l">config</text><text x="116.232" y="1.67" class="l">file.</text><text x="121.242" y="1.67" class="g">)</text><text x="124.248" y="1.67" class="g">vim</text><text x="132.264" y="1.67" class="g">(</text><text x="133.266" y="1.67" class="l">Opens</text><text x="139.278" y="1.67" class="l">the</text><text x="143.286" y="1.67" class="l">Vim</text><text x="147.294" y="1.67" class="l">config</text><text x="154.308" y="1.67" class="l">file.</text><text x="159.318" y="1.67" class="g">)</text></symbol><symbol id="6"><text y="1.67" class="g">git</text><text x="7.014" y="1.67" class="g">(</text><text x="8.016" y="1.67" class="l">Opens</text><text x="14.028" y="1.67" class="l">the</text><text x="18.036" y="1.67" class="l">Git</text><text x="22.044" y="1.67" class="l">config</text><text x="29.058" y="1.67" class="l">file.</text><text x="34.068" y="1.67" class="g">)</text><text x="37.074" y="1.67" class="g">help</text><text x="64.128" y="1.67" class="g">(</text><text x="65.13" y="1.67" class="l">Print</text><text x="71.142" y="1.67" class="l">help.</text><text x="76.152" y="1.67" class="g">)</text><text x="79.158" y="1.67" class="g">tmux</text><text x="93.186" y="1.67" class="g">(</text><text x="94.188" y="1.67" class="l">Opens</text><text x="100.2" y="1.67" class="l">the</text><text x="104.208" y="1.67" class="l">tmux</text><text x="109.218" y="1.67" class="l">config</text><text x="116.232" y="1.67" class="l">file.</text><text x="121.242" y="1.67" class="g">)</text><text x="124.248" y="1.67" class="g">zsh</text><text x="132.264" y="1.67" class="g">(</text><text x="133.266" y="1.67" class="l">Opens</text><text x="139.278" y="1.67" class="l">the</text><text x="143.286" y="1.67" class="l">Zsh</text><text x="147.294" y="1.67" class="l">config</text><text x="154.308" y="1.67" class="l">file.</text><text x="159.318" y="1.67" class="g">)</text></symbol><symbol id="7"><path class="m" d="M0 0h7v2.171H0z"/><text y="1.67" class="n">bash (</text><path class="m" d="M7.014 0h27v2.171h-27z"/><text x="7.014" y="1.67" class="f">Opens the Bash config file.</text><path class="m" d="M34.068 0h1v2.171h-1z"/><text x="34.068" y="1.67" class="g">)</text><text x="37.074" y="1.67" class="g">gpg</text><text x="49.098" y="1.67" class="g">(</text><text x="50.1" y="1.67" class="l">Opens</text><text x="56.112" y="1.67" class="l">the</text><text x="60.12" y="1.67" class="l">GPG</text><text x="64.128" y="1.67" class="l">config</text><text x="71.142" y="1.67" class="l">file.</text><text x="76.152" y="1.67" class="g">)</text><text x="79.158" y="1.67" class="g">nvim</text><text x="91.182" y="1.67" class="g">(</text><text x="92.184" y="1.67" class="l">Opens</text><text x="98.196" y="1.67" class="l">the</text><text x="102.204" y="1.67" class="l">Neovim</text><text x="109.218" y="1.67" class="l">config</text><text x="116.232" y="1.67" class="l">file.</text><text x="121.242" y="1.67" class="g">)</text><text x="124.248" y="1.67" class="g">version</text><text x="133.266" y="1.67" class="g">(</text><text x="134.268" y="1.67" class="l">Show</text><text x="139.278" y="1.67" class="l">the</text><text x="143.286" y="1.67" class="l">current</text><text x="151.302" y="1.67" class="l">version.</text><text x="159.318" y="1.67" class="g">)</text></symbol><symbol id="8"><text y="1.67" class="i">❯</text><text x="2.004" y="1.67" class="j">emc</text><text x="6.012" y="1.67" class="o">bash</text></symbol><symbol id="9"><path class="m" d="M0 0h8v2.171H0z"/><text y="1.67" class="n">git (</text><path class="m" d="M8.016 0h26v2.171h-26z"/><text x="8.016" y="1.67" class="f">Opens the Git config file.</text><path class="m" d="M34.068 0h1v2.171h-1z"/><text x="34.068" y="1.67" class="g">)</text><text x="37.074" y="1.67" class="g">help</text><text x="64.128" y="1.67" class="g">(</text><text x="65.13" y="1.67" class="l">Print</text><text x="71.142" y="1.67" class="l">help.</text><text x="76.152" y="1.67" class="g">)</text><text x="79.158" y="1.67" class="g">tmux</text><text x="93.186" y="1.67" class="g">(</text><text x="94.188" y="1.67" class="l">Opens</text><text x="100.2" y="1.67" class="l">the</text><text x="104.208" y="1.67" class="l">tmux</text><text x="109.218" y="1.67" class="l">config</text><text x="116.232" y="1.67" class="l">file.</text><text x="121.242" y="1.67" class="g">)</text><text x="124.248" y="1.67" class="g">zsh</text><text x="132.264" y="1.67" class="g">(</text><text x="133.266" y="1.67" class="l">Opens</text><text x="139.278" y="1.67" class="l">the</text><text x="143.286" y="1.67" class="l">Zsh</text><text x="147.294" y="1.67" class="l">config</text><text x="154.308" y="1.67" class="l">file.</text><text x="159.318" y="1.67" class="g">)</text></symbol><symbol id="10"><text y="1.67" class="g">fish</text><text x="6.012" y="1.67" class="g">(</text><text x="7.014" y="1.67" class="l">Opens</text><text x="13.026" y="1.67" class="l">the</text><text x="17.034" y="1.67" class="l">Fish</text><text x="22.044" y="1.67" class="l">config</text><text x="29.058" y="1.67" class="l">file.</text><text x="34.068" y="1.67" class="g">)</text><path class="m" d="M37.074 0h7v2.171h-7z"/><text x="37.074" y="1.67" class="n">gpga (</text><path class="m" d="M44.088 0h32v2.171h-32z"/><text x="44.088" y="1.67" class="f">Opens the GPG agent config file.</text><path class="m" d="M76.152 0h1v2.171h-1z"/><text x="76.152" y="1.67" class="g">)</text><text x="79.158" y="1.67" class="g">starship</text><text x="89.178" y="1.67" class="g">(</text><text x="90.18" y="1.67" class="l">Opens</text><text x="96.192" y="1.67" class="l">the</text><text x="100.2" y="1.67" class="l">starship</text><text x="109.218" y="1.67" class="l">config</text><text x="116.232" y="1.67" class="l">file.</text><text x="121.242" y="1.67" class="g">)</text><text x="124.248" y="1.67" class="g">vim</text><text x="132.264" y="1.67" class="g">(</text><text x="133.266" y="1.67" class="l">Opens</text><text x="139.278" y="1.67" class="l">the</text><text x="143.286" y="1.67" class="l">Vim</text><text x="147.294" y="1.67" class="l">config</text><text x="154.308" y="1.67" class="l">file.</text><text x="159.318" y="1.67" class="g">)</text></symbol><symbol id="11"><text y="1.67" class="i">❯</text><text x="2.004" y="1.67" class="j">emc</text><text x="6.012" y="1.67" class="o">help</text></symbol><symbol id="12"><text y="1.67" class="g">fish</text><text x="6.012" y="1.67" class="g">(</text><text x="7.014" y="1.67" class="l">Opens</text><text x="13.026" y="1.67" class="l">the</text><text x="17.034" y="1.67" class="l">Fish</text><text x="22.044" y="1.67" class="l">config</text><text x="29.058" y="1.67" class="l">file.</text><text x="34.068" y="1.67" class="g">)</text><text x="37.074" y="1.67" class="g">gpga</text><text x="43.086" y="1.67" class="g">(</text><text x="44.088" y="1.67" class="l">Opens</text><text x="50.1" y="1.67" class="l">the</text><text x="54.108" y="1.67" class="l">GPG</text><text x="58.116" y="1.67" class="l">agent</text><text x="64.128" y="1.67" class="l">config</text><text x="71.142" y="1.67" class="l">file.</text><text x="76.152" y="1.67" class="g">)</text><path class="m" d="M79.158 0h11v2.171h-11z"/><text x="79.158" y="1.67" class="n">starship (</text><path class="m" d="M90.18 0h31v2.171h-31z"/><text x="90.18" y="1.67" class="f">Opens the starship config file.</text><path class="m" d="M121.242 0h1v2.171h-1z"/><text x="121.242" y="1.67" class="g">)</text><text x="124.248" y="1.67" class="g">vim</text><text x="132.264" y="1.67" class="g">(</text><text x="133.266" y="1.67" class="l">Opens</text><text x="139.278" y="1.67" class="l">the</text><text x="143.286" y="1.67" class="l">Vim</text><text x="147.294" y="1.67" class="l">config</text><text x="154.308" y="1.67" class="l">file.</text><text x="159.318" y="1.67" class="g">)</text></symbol><symbol id="13"><text y="1.67" class="i">❯</text><text x="2.004" y="1.67" class="j">emc</text><text x="6.012" y="1.67" class="o">tmux</text></symbol><symbol id="14"><text y="1.67" class="g">git</text><text x="7.014" y="1.67" class="g">(</text><text x="8.016" y="1.67" class="l">Opens</text><text x="14.028" y="1.67" class="l">the</text><text x="18.036" y="1.67" class="l">Git</text><text x="22.044" y="1.67" class="l">config</text><text x="29.058" y="1.67" class="l">file.</text><text x="34.068" y="1.67" class="g">)</text><text x="37.074" y="1.67" class="g">help</text><text x="64.128" y="1.67" class="g">(</text><text x="65.13" y="1.67" class="l">Print</text><text x="71.142" y="1.67" class="l">help.</text><text x="76.152" y="1.67" class="g">)</text><path class="m" d="M79.158 0h15v2.171h-15z"/><text x="79.158" y="1.67" class="n">tmux (</text><path class="m" d="M94.188 0h27v2.171h-27z"/><text x="94.188" y="1.67" class="f">Opens the tmux config file.</text><path class="m" d="M121.242 0h1v2.171h-1z"/><text x="121.242" y="1.67" class="g">)</text><text x="124.248" y="1.67" class="g">zsh</text><text x="132.264" y="1.67" class="g">(</text><text x="133.266" y="1.67" class="l">Opens</text><text x="139.278" y="1.67" class="l">the</text><text x="143.286" y="1.67" class="l">Zsh</text><text x="147.294" y="1.67" class="l">config</text><text x="154.308" y="1.67" class="l">file.</text><text x="159.318" y="1.67" class="g">)</text></symbol><symbol id="15"><text y="1.67" class="g">bash</text><text x="6.012" y="1.67" class="g">(</text><text x="7.014" y="1.67" class="l">Opens</text><text x="13.026" y="1.67" class="l">the</text><text x="17.034" y="1.67" class="l">Bash</text><text x="22.044" y="1.67" class="l">config</text><text x="29.058" y="1.67" class="l">file.</text><text x="34.068" y="1.67" class="g">)</text><text x="37.074" y="1.67" class="g">gpg</text><text x="49.098" y="1.67" class="g">(</text><text x="50.1" y="1.67" class="l">Opens</text><text x="56.112" y="1.67" class="l">the</text><text x="60.12" y="1.67" class="l">GPG</text><text x="64.128" y="1.67" class="l">config</text><text x="71.142" y="1.67" class="l">file.</text><text x="76.152" y="1.67" class="g">)</text><text x="79.158" y="1.67" class="g">nvim</text><text x="91.182" y="1.67" class="g">(</text><text x="92.184" y="1.67" class="l">Opens</text><text x="98.196" y="1.67" class="l">the</text><text x="102.204" y="1.67" class="l">Neovim</text><text x="109.218" y="1.67" class="l">config</text><text x="116.232" y="1.67" class="l">file.</text><text x="121.242" y="1.67" class="g">)</text><path class="m" d="M124.248 0h10v2.171h-10z"/><text x="124.248" y="1.67" class="n">version (</text><path class="m" d="M134.268 0h25v2.171h-25z"/><text x="134.268" y="1.67" class="f">Show the current version.</text><path class="m" d="M159.318 0h1v2.171h-1z"/><text x="159.318" y="1.67" class="g">)</text></symbol><symbol id="16"><text y="1.67" class="i">❯</text><text x="2.004" y="1.67" class="j">emc</text><text x="6.012" y="1.67" class="o">vim</text></symbol><symbol id="17"><text y="1.67" class="g">fish</text><text x="6.012" y="1.67" class="g">(</text><text x="7.014" y="1.67" class="l">Opens</text><text x="13.026" y="1.67" class="l">the</text><text x="17.034" y="1.67" class="l">Fish</text><text x="22.044" y="1.67" class="l">config</text><text x="29.058" y="1.67" class="l">file.</text><text x="34.068" y="1.67" class="g">)</text><text x="37.074" y="1.67" class="g">gpga</text><text x="43.086" y="1.67" class="g">(</text><text x="44.088" y="1.67" class="l">Opens</text><text x="50.1" y="1.67" class="l">the</text><text x="54.108" y="1.67" class="l">GPG</text><text x="58.116" y="1.67" class="l">agent</text><text x="64.128" y="1.67" class="l">config</text><text x="71.142" y="1.67" class="l">file.</text><text x="76.152" y="1.67" class="g">)</text><text x="79.158" y="1.67" class="g">starship</text><text x="89.178" y="1.67" class="g">(</text><text x="90.18" y="1.67" class="l">Opens</text><text x="96.192" y="1.67" class="l">the</text><text x="100.2" y="1.67" class="l">starship</text><text x="109.218" y="1.67" class="l">config</text><text x="116.232" y="1.67" class="l">file.</text><text x="121.242" y="1.67" class="g">)</text><path class="m" d="M124.248 0h9v2.171h-9z"/><text x="124.248" y="1.67" class="n">vim (</text><path class="m" d="M133.266 0h26v2.171h-26z"/><text x="133.266" y="1.67" class="f">Opens the Vim config file.</text><path class="m" d="M159.318 0h1v2.171h-1z"/><text x="159.318" y="1.67" class="g">)</text></symbol><symbol id="18"><text y="1.67" class="g">emc</text><text x="4.008" y="1.67" class="g">-</text><text x="6.012" y="1.67" class="g">Edit</text><text x="11.022" y="1.67" class="g">My</text><text x="14.028" y="1.67" class="g">Config</text></symbol><symbol id="19"><text y="1.67" class="g">USAGE</text></symbol><symbol id="20"><text x="3.006" y="1.67" class="g">emc</text><text x="7.014" y="1.67" class="g">[option]</text></symbol><symbol id="21"><text y="1.67" class="g">OPTIONS</text></symbol><symbol id="22"><text x="3.006" y="1.67" class="g">bash</text><text x="14.028" y="1.67" class="g">Opens</text><text x="20.04" y="1.67" class="g">the</text><text x="24.048" y="1.67" class="g">Bash</text><text x="29.058" y="1.67" class="g">config</text><text x="36.072" y="1.67" class="g">file.</text></symbol><symbol id="23"><text x="3.006" y="1.67" class="g">fish</text><text x="14.028" y="1.67" class="g">Opens</text><text x="20.04" y="1.67" class="g">the</text><text x="24.048" y="1.67" class="g">Fish</text><text x="29.058" y="1.67" class="g">config</text><text x="36.072" y="1.67" class="g">file.</text></symbol><symbol id="24"><text x="3.006" y="1.67" class="g">git</text><text x="14.028" y="1.67" class="g">Opens</text><text x="20.04" y="1.67" class="g">the</text><text x="24.048" y="1.67" class="g">Git</text><text x="28.056" y="1.67" class="g">config</text><text x="35.07" y="1.67" class="g">file.</text></symbol><symbol id="25"><text x="3.006" y="1.67" class="g">gpg</text><text x="14.028" y="1.67" class="g">Opens</text><text x="20.04" y="1.67" class="g">the</text><text x="24.048" y="1.67" class="g">GPG</text><text x="28.056" y="1.67" class="g">config</text><text x="35.07" y="1.67" class="g">file.</text></symbol><symbol id="26"><text x="3.006" y="1.67" class="g">gpga</text><text x="14.028" y="1.67" class="g">Opens</text><text x="20.04" y="1.67" class="g">the</text><text x="24.048" y="1.67" class="g">GPG</text><text x="28.056" y="1.67" class="g">agent</text><text x="34.068" y="1.67" class="g">config</text><text x="41.082" y="1.67" class="g">file.</text></symbol><symbol id="27"><text x="3.006" y="1.67" class="g">nvim</text><text x="14.028" y="1.67" class="g">Opens</text><text x="20.04" y="1.67" class="g">the</text><text x="24.048" y="1.67" class="g">Neovim</text><text x="31.062" y="1.67" class="g">config</text><text x="38.076" y="1.67" class="g">file.</text></symbol><symbol id="28"><text x="3.006" y="1.67" class="g">starship</text><text x="14.028" y="1.67" class="g">Opens</text><text x="20.04" y="1.67" class="g">the</text><text x="24.048" y="1.67" class="g">starship</text><text x="33.066" y="1.67" class="g">config</text><text x="40.08" y="1.67" class="g">file.</text></symbol><symbol id="29"><text x="3.006" y="1.67" class="g">tmux</text><text x="14.028" y="1.67" class="g">Opens</text><text x="20.04" y="1.67" class="g">the</text><text x="24.048" y="1.67" class="g">tmux</text><text x="29.058" y="1.67" class="g">config</text><text x="36.072" y="1.67" class="g">file.</text></symbol><symbol id="30"><text x="3.006" y="1.67" class="g">vim</text><text x="14.028" y="1.67" class="g">Opens</text><text x="20.04" y="1.67" class="g">the</text><text x="24.048" y="1.67" class="g">Vim</text><text x="28.056" y="1.67" class="g">config</text><text x="35.07" y="1.67" class="g">file.</text></symbol><symbol id="31"><text x="3.006" y="1.67" class="g">zsh</text><text x="14.028" y="1.67" class="g">Opens</text><text x="20.04" y="1.67" class="g">the</text><text x="24.048" y="1.67" class="g">Zsh</text><text x="28.056" y="1.67" class="g">config</text><text x="35.07" y="1.67" class="g">file.</text></symbol><symbol id="32"><text x="3.006" y="1.67" class="g">version</text><text x="14.028" y="1.67" class="g">Show</text><text x="19.038" y="1.67" class="g">the</text><text x="23.046" y="1.67" class="g">current</text><text x="31.062" y="1.67" class="g">version.</text></symbol><symbol id="33"><text x="3.006" y="1.67" class="g">help</text><text x="14.028" y="1.67" class="g">Print</text><text x="20.04" y="1.67" class="g">this</text><text x="25.05" y="1.67" class="g">help.</text></symbol><symbol id="34"><text y="1.67" class="g">For</text><text x="4.008" y="1.67" class="g">more</text><text x="9.018" y="1.67" class="g">information</text><text x="21.042" y="1.67" class="g">visit</text><text x="27.054" y="1.67" class="g">→</text><text x="29.058" y="1.67" class="g">https://git.io/emc.fish</text></symbol><symbol id="35"><text y="1.67" class="f">demartini</text><text x="10.02" y="1.67" class="g">in</text><text x="13.026" y="1.67" class="h">~</text><text x="15.03" y="1.67" class="g">at</text><text x="18.036" y="1.67" class="f">13:33:16</text></symbol><symbol id="a"><path fill="transparent" d="M0 0h160v25H0z"/></symbol><symbol id="b"><path fill="#b89bf9" d="M0 0h1.102v2.171H0z"/></symbol></defs><path class="a" d="M0 0h160v54.275H0z"/><g style="animation-duration:18.389542999999996s;animation-iteration-count:infinite;animation-name:r;animation-timing-function:steps(1,end)"><svg width="9600"><svg><use xlink:href="#a"/><use xlink:href="#b" x="-.004"/></svg><svg x="160"><use xlink:href="#a"/><use xlink:href="#b" x="-.004"/></svg><svg x="320"><use xlink:href="#a"/><use xlink:href="#b" x="-.004"/></svg><svg x="480"><use xlink:href="#a"/><use xlink:href="#b" x="-.004"/></svg><svg x="640"><use xlink:href="#a"/><use xlink:href="#b" x="-.004"/></svg><svg x="800"><use xlink:href="#a"/><use xlink:href="#b" x="1.996" y="2.146"/><use xlink:href="#1"/><use xlink:href="#2" y="2.171"/></svg><svg x="960"><use xlink:href="#a"/><use xlink:href="#b" x="2.996" y="2.146"/><use xlink:href="#1"/><text y="3.841" class="i">❯</text><text x="2.004" y="3.841" class="g">e</text></svg><svg x="1120"><use xlink:href="#a"/><use xlink:href="#b" x="2.996" y="2.146"/><use xlink:href="#1"/><text y="3.841" class="i">❯</text><text x="2.004" y="3.841" class="t">e</text></svg><svg x="1280"><use xlink:href="#a"/><use xlink:href="#b" x="2.996" y="2.146"/><use xlink:href="#1"/><text y="3.841" class="i">❯</text><text x="2.004" y="3.841" class="t">e</text><text x="3.006" y="3.841" class="k">mc</text><text x="6.012" y="3.841" class="k">help</text></svg><svg x="1440"><use xlink:href="#a"/><use xlink:href="#b" x="3.996" y="2.146"/><use xlink:href="#1"/><text y="3.841" class="i">❯</text><text x="2.004" y="3.841" class="t">em</text><text x="4.008" y="3.841" class="k">c</text><text x="6.012" y="3.841" class="k">help</text></svg><svg x="1600"><use xlink:href="#a"/><use xlink:href="#b" x="4.996" y="2.146"/><use xlink:href="#1"/><text y="3.841" class="i">❯</text><text x="2.004" y="3.841" class="t">emc</text><text x="6.012" y="3.841" class="k">help</text></svg><svg x="1760"><use xlink:href="#a"/><use xlink:href="#b" x="4.996" y="2.146"/><use xlink:href="#1"/><use xlink:href="#3" y="2.171"/></svg><svg x="1920"><use xlink:href="#a"/><use xlink:href="#b" x="5.996" y="2.146"/><use xlink:href="#1"/><use xlink:href="#3" y="2.171"/></svg><svg x="2080"><use xlink:href="#a"/><use xlink:href="#b" x="5.996" y="2.146"/><use xlink:href="#1"/><use xlink:href="#3" y="2.171"/></svg><svg x="2240"><use xlink:href="#a"/><use xlink:href="#b" x="5.996" y="2.146"/><use xlink:href="#1"/><use xlink:href="#3" y="2.171"/><use xlink:href="#4" y="4.342"/><use xlink:href="#5" y="6.513"/><use xlink:href="#6" y="8.684"/></svg><svg x="2400"><use xlink:href="#a"/><use xlink:href="#b" x="10.996" y="2.146"/><use xlink:href="#1"/><text y="3.841" class="i">❯</text><text x="2.004" y="3.841" class="j">emc</text><text x="6.012" y="3.841" class="g">bash</text><use xlink:href="#7" y="4.342"/><use xlink:href="#5" y="6.513"/><use xlink:href="#6" y="8.684"/></svg><svg x="2560"><use xlink:href="#a"/><use xlink:href="#b" x="10.996" y="2.146"/><use xlink:href="#1"/><use xlink:href="#8" y="2.171"/><use xlink:href="#7" y="4.342"/><use xlink:href="#5" y="6.513"/><use xlink:href="#6" y="8.684"/></svg><svg x="2720"><use xlink:href="#a"/><use xlink:href="#b" x="10.996" y="2.146"/><use xlink:href="#1"/><text y="3.841" class="i">❯</text><text x="2.004" y="3.841" class="j">emc</text><text x="6.012" y="3.841" class="o">fish</text><use xlink:href="#4" y="4.342"/><path class="m" d="M0 6.513h7v2.171H0z"/><text y="8.183" class="n">fish (</text><path class="m" d="M7.014 6.513h27v2.171h-27z"/><text x="7.014" y="8.183" class="f">Opens the Fish config file.</text><path class="m" d="M34.068 6.513h1v2.171h-1z"/><text x="34.068" y="8.183" class="g">)</text><text x="37.074" y="8.183" class="g">gpga</text><text x="43.086" y="8.183" class="g">(</text><text x="44.088" y="8.183" class="l">Opens</text><text x="50.1" y="8.183" class="l">the</text><text x="54.108" y="8.183" class="l">GPG</text><text x="58.116" y="8.183" class="l">agent</text><text x="64.128" y="8.183" class="l">config</text><text x="71.142" y="8.183" class="l">file.</text><text x="76.152" y="8.183" class="g">)</text><text x="79.158" y="8.183" class="g">starship</text><text x="89.178" y="8.183" class="g">(</text><text x="90.18" y="8.183" class="l">Opens</text><text x="96.192" y="8.183" class="l">the</text><text x="100.2" y="8.183" class="l">starship</text><text x="109.218" y="8.183" class="l">config</text><text x="116.232" y="8.183" class="l">file.</text><text x="121.242" y="8.183" class="g">)</text><text x="124.248" y="8.183" class="g">vim</text><text x="132.264" y="8.183" class="g">(</text><text x="133.266" y="8.183" class="l">Opens</text><text x="139.278" y="8.183" class="l">the</text><text x="143.286" y="8.183" class="l">Vim</text><text x="147.294" y="8.183" class="l">config</text><text x="154.308" y="8.183" class="l">file.</text><text x="159.318" y="8.183" class="g">)</text><use xlink:href="#6" y="8.684"/></svg><svg x="2880"><use xlink:href="#a"/><use xlink:href="#b" x="9.996" y="2.146"/><use xlink:href="#1"/><text y="3.841" class="i">❯</text><text x="2.004" y="3.841" class="j">emc</text><text x="6.012" y="3.841" class="o">git</text><use xlink:href="#4" y="4.342"/><use xlink:href="#5" y="6.513"/><use xlink:href="#9" y="8.684"/></svg><svg x="3040"><use xlink:href="#a"/><use xlink:href="#b" x="9.996" y="2.146"/><use xlink:href="#1"/><text y="3.841" class="i">❯</text><text x="2.004" y="3.841" class="j">emc</text><text x="6.012" y="3.841" style="white-space:pre" fill="#62d6e8" text-decoration="underline">git</text><use xlink:href="#4" y="4.342"/><use xlink:href="#5" y="6.513"/><use xlink:href="#9" y="8.684"/></svg><svg x="3200"><use xlink:href="#a"/><use xlink:href="#b" x="9.996" y="2.146"/><use xlink:href="#1"/><text y="3.841" class="i">❯</text><text x="2.004" y="3.841" class="j">emc</text><text x="6.012" y="3.841" class="o">gpg</text><text y="6.012" class="g">bash</text><text x="6.012" y="6.012" class="g">(</text><text x="7.014" y="6.012" class="l">Opens</text><text x="13.026" y="6.012" class="l">the</text><text x="17.034" y="6.012" class="l">Bash</text><text x="22.044" y="6.012" class="l">config</text><text x="29.058" y="6.012" class="l">file.</text><text x="34.068" y="6.012" class="g">)</text><path class="m" d="M37.074 4.342h13v2.171h-13z"/><text x="37.074" y="6.012" class="n">gpg (</text><path class="m" d="M50.1 4.342h26v2.171h-26z"/><text x="50.1" y="6.012" class="f">Opens the GPG config file.</text><path class="m" d="M76.152 4.342h1v2.171h-1z"/><text x="76.152" y="6.012" class="g">)</text><text x="79.158" y="6.012" class="g">nvim</text><text x="91.182" y="6.012" class="g">(</text><text x="92.184" y="6.012" class="l">Opens</text><text x="98.196" y="6.012" class="l">the</text><text x="102.204" y="6.012" class="l">Neovim</text><text x="109.218" y="6.012" class="l">config</text><text x="116.232" y="6.012" class="l">file.</text><text x="121.242" y="6.012" class="g">)</text><text x="124.248" y="6.012" class="g">version</text><text x="133.266" y="6.012" class="g">(</text><text x="134.268" y="6.012" class="l">Show</text><text x="139.278" y="6.012" class="l">the</text><text x="143.286" y="6.012" class="l">current</text><text x="151.302" y="6.012" class="l">version.</text><text x="159.318" y="6.012" class="g">)</text><use xlink:href="#5" y="6.513"/><use xlink:href="#6" y="8.684"/></svg><svg x="3360"><use xlink:href="#a"/><use xlink:href="#b" x="10.996" y="2.146"/><use xlink:href="#1"/><text y="3.841" class="i">❯</text><text x="2.004" y="3.841" class="j">emc</text><text x="6.012" y="3.841" class="o">gpg</text><text x="9.018" y="3.841" class="g">a</text><use xlink:href="#4" y="4.342"/><use xlink:href="#10" y="6.513"/><use xlink:href="#6" y="8.684"/></svg><svg x="3520"><use xlink:href="#a"/><use xlink:href="#b" x="10.996" y="2.146"/><use xlink:href="#1"/><text y="3.841" class="i">❯</text><text x="2.004" y="3.841" class="j">emc</text><text x="6.012" y="3.841" class="o">gpga</text><use xlink:href="#4" y="4.342"/><use xlink:href="#10" y="6.513"/><use xlink:href="#6" y="8.684"/></svg><svg x="3680"><use xlink:href="#a"/><use xlink:href="#b" x="10.996" y="2.146"/><use xlink:href="#1"/><use xlink:href="#11" y="2.171"/><use xlink:href="#4" y="4.342"/><use xlink:href="#5" y="6.513"/><text y="10.354" class="g">git</text><text x="7.014" y="10.354" class="g">(</text><text x="8.016" y="10.354" class="l">Opens</text><text x="14.028" y="10.354" class="l">the</text><text x="18.036" y="10.354" class="l">Git</text><text x="22.044" y="10.354" class="l">config</text><text x="29.058" y="10.354" class="l">file.</text><text x="34.068" y="10.354" class="g">)</text><path class="m" d="M37.074 8.684h28v2.171h-28z"/><text x="37.074" y="10.354" class="n">help (</text><path class="m" d="M65.13 8.684h11v2.171h-11z"/><text x="65.13" y="10.354" class="f">Print help.</text><path class="m" d="M76.152 8.684h1v2.171h-1z"/><text x="76.152" y="10.354" class="g">)</text><text x="79.158" y="10.354" class="g">tmux</text><text x="93.186" y="10.354" class="g">(</text><text x="94.188" y="10.354" class="l">Opens</text><text x="100.2" y="10.354" class="l">the</text><text x="104.208" y="10.354" class="l">tmux</text><text x="109.218" y="10.354" class="l">config</text><text x="116.232" y="10.354" class="l">file.</text><text x="121.242" y="10.354" class="g">)</text><text x="124.248" y="10.354" class="g">zsh</text><text x="132.264" y="10.354" class="g">(</text><text x="133.266" y="10.354" class="l">Opens</text><text x="139.278" y="10.354" class="l">the</text><text x="143.286" y="10.354" class="l">Zsh</text><text x="147.294" y="10.354" class="l">config</text><text x="154.308" y="10.354" class="l">file.</text><text x="159.318" y="10.354" class="g">)</text></svg><svg x="3840"><use xlink:href="#a"/><use xlink:href="#b" x="10.996" y="2.146"/><use xlink:href="#1"/><text y="3.841" class="i">❯</text><text x="2.004" y="3.841" class="j">emc</text><text x="6.012" y="3.841" class="o">nvim</text><text y="6.012" class="g">bash</text><text x="6.012" y="6.012" class="g">(</text><text x="7.014" y="6.012" class="l">Opens</text><text x="13.026" y="6.012" class="l">the</text><text x="17.034" y="6.012" class="l">Bash</text><text x="22.044" y="6.012" class="l">config</text><text x="29.058" y="6.012" class="l">file.</text><text x="34.068" y="6.012" class="g">)</text><text x="37.074" y="6.012" class="g">gpg</text><text x="49.098" y="6.012" class="g">(</text><text x="50.1" y="6.012" class="l">Opens</text><text x="56.112" y="6.012" class="l">the</text><text x="60.12" y="6.012" class="l">GPG</text><text x="64.128" y="6.012" class="l">config</text><text x="71.142" y="6.012" class="l">file.</text><text x="76.152" y="6.012" class="g">)</text><path class="m" d="M79.158 4.342h13v2.171h-13z"/><text x="79.158" y="6.012" class="n">nvim (</text><path class="m" d="M92.184 4.342h29v2.171h-29z"/><text x="92.184" y="6.012" class="f">Opens the Neovim config file.</text><path class="m" d="M121.242 4.342h1v2.171h-1z"/><text x="121.242" y="6.012" class="g">)</text><text x="124.248" y="6.012" class="g">version</text><text x="133.266" y="6.012" class="g">(</text><text x="134.268" y="6.012" class="l">Show</text><text x="139.278" y="6.012" class="l">the</text><text x="143.286" y="6.012" class="l">current</text><text x="151.302" y="6.012" class="l">version.</text><text x="159.318" y="6.012" class="g">)</text><use xlink:href="#5" y="6.513"/><use xlink:href="#6" y="8.684"/></svg><svg x="4000"><use xlink:href="#a"/><use xlink:href="#b" x="14.996" y="2.146"/><use xlink:href="#1"/><text y="3.841" class="i">❯</text><text x="2.004" y="3.841" class="j">emc</text><text x="6.012" y="3.841" class="o">star</text><text x="10.02" y="3.841" class="g">ship</text><use xlink:href="#4" y="4.342"/><use xlink:href="#12" y="6.513"/><use xlink:href="#6" y="8.684"/></svg><svg x="4160"><use xlink:href="#a"/><use xlink:href="#b" x="14.996" y="2.146"/><use xlink:href="#1"/><text y="3.841" class="i">❯</text><text x="2.004" y="3.841" class="j">emc</text><text x="6.012" y="3.841" class="o">starship</text><use xlink:href="#4" y="4.342"/><use xlink:href="#12" y="6.513"/><use xlink:href="#6" y="8.684"/></svg><svg x="4320"><use xlink:href="#a"/><use xlink:href="#b" x="10.996" y="2.146"/><use xlink:href="#1"/><use xlink:href="#13" y="2.171"/><use xlink:href="#4" y="4.342"/><use xlink:href="#5" y="6.513"/><use xlink:href="#14" y="8.684"/></svg><svg x="4480"><use xlink:href="#a"/><use xlink:href="#b" x="10.996" y="2.146"/><use xlink:href="#1"/><use xlink:href="#13" y="2.171"/><use xlink:href="#4" y="4.342"/><use xlink:href="#5" y="6.513"/><use xlink:href="#14" y="8.684"/></svg><svg x="4640"><use xlink:href="#a"/><use xlink:href="#b" x="13.996" y="2.146"/><use xlink:href="#1"/><text y="3.841" class="i">❯</text><text x="2.004" y="3.841" class="j">emc</text><text x="6.012" y="3.841" class="o">vers</text><text x="10.02" y="3.841" class="g">ion</text><use xlink:href="#15" y="4.342"/><use xlink:href="#5" y="6.513"/><use xlink:href="#6" y="8.684"/></svg><svg x="4800"><use xlink:href="#a"/><use xlink:href="#b" x="13.996" y="2.146"/><use xlink:href="#1"/><text y="3.841" class="i">❯</text><text x="2.004" y="3.841" class="j">emc</text><text x="6.012" y="3.841" class="o">version</text><use xlink:href="#15" y="4.342"/><use xlink:href="#5" y="6.513"/><use xlink:href="#6" y="8.684"/></svg><svg x="4960"><use xlink:href="#a"/><use xlink:href="#b" x="9.996" y="2.146"/><use xlink:href="#1"/><use xlink:href="#16" y="2.171"/><use xlink:href="#4" y="4.342"/><use xlink:href="#17" y="6.513"/><use xlink:href="#6" y="8.684"/></svg><svg x="5120"><use xlink:href="#a"/><use xlink:href="#b" x="9.996" y="2.146"/><use xlink:href="#1"/><use xlink:href="#16" y="2.171"/><use xlink:href="#4" y="4.342"/><use xlink:href="#17" y="6.513"/><use xlink:href="#6" y="8.684"/></svg><svg x="5280"><use xlink:href="#a"/><use xlink:href="#b" x="9.996" y="2.146"/><use xlink:href="#1"/><text y="3.841" class="i">❯</text><text x="2.004" y="3.841" class="j">emc</text><text x="6.012" y="3.841" class="o">zsh</text><use xlink:href="#4" y="4.342"/><use xlink:href="#5" y="6.513"/><text y="10.354" class="g">git</text><text x="7.014" y="10.354" class="g">(</text><text x="8.016" y="10.354" class="l">Opens</text><text x="14.028" y="10.354" class="l">the</text><text x="18.036" y="10.354" class="l">Git</text><text x="22.044" y="10.354" class="l">config</text><text x="29.058" y="10.354" class="l">file.</text><text x="34.068" y="10.354" class="g">)</text><text x="37.074" y="10.354" class="g">help</text><text x="64.128" y="10.354" class="g">(</text><text x="65.13" y="10.354" class="l">Print</text><text x="71.142" y="10.354" class="l">help.</text><text x="76.152" y="10.354" class="g">)</text><text x="79.158" y="10.354" class="g">tmux</text><text x="93.186" y="10.354" class="g">(</text><text x="94.188" y="10.354" class="l">Opens</text><text x="100.2" y="10.354" class="l">the</text><text x="104.208" y="10.354" class="l">tmux</text><text x="109.218" y="10.354" class="l">config</text><text x="116.232" y="10.354" class="l">file.</text><text x="121.242" y="10.354" class="g">)</text><path class="m" d="M124.248 8.684h9v2.171h-9z"/><text x="124.248" y="10.354" class="n">zsh (</text><path class="m" d="M133.266 8.684h26v2.171h-26z"/><text x="133.266" y="10.354" class="f">Opens the Zsh config file.</text><path class="m" d="M159.318 8.684h1v2.171h-1z"/><text x="159.318" y="10.354" class="g">)</text></svg><svg x="5440"><use xlink:href="#a"/><use xlink:href="#b" x="10.996" y="2.146"/><use xlink:href="#1"/><text y="3.841" class="i">❯</text><text x="2.004" y="3.841" class="j">emc</text><text x="6.012" y="3.841" class="o">bas</text><text x="9.018" y="3.841" class="g">h</text><use xlink:href="#7" y="4.342"/><use xlink:href="#5" y="6.513"/><use xlink:href="#6" y="8.684"/></svg><svg x="5600"><use xlink:href="#a"/><use xlink:href="#b" x="10.996" y="2.146"/><use xlink:href="#1"/><use xlink:href="#8" y="2.171"/><use xlink:href="#7" y="4.342"/><use xlink:href="#5" y="6.513"/><use xlink:href="#6" y="8.684"/></svg><svg x="5760"><use xlink:href="#a"/><use xlink:href="#b" x="5.996" y="2.146"/><use xlink:href="#1"/><text y="3.841" class="i">❯</text><text x="2.004" y="3.841" class="j">emc</text></svg><svg x="5920"><use xlink:href="#a"/><use xlink:href="#b" x="5.996" y="2.146"/><use xlink:href="#1"/><use xlink:href="#3" y="2.171"/></svg><svg x="6080"><use xlink:href="#a"/><use xlink:href="#b" x="6.996" y="2.146"/><use xlink:href="#1"/><text y="3.841" class="i">❯</text><text x="2.004" y="3.841" class="j">emc</text><text x="6.012" y="3.841" class="g">h</text><text x="7.014" y="3.841" class="k">elp</text></svg><svg x="6240"><use xlink:href="#a"/><use xlink:href="#b" x="6.996" y="2.146"/><use xlink:href="#1"/><text y="3.841" class="i">❯</text><text x="2.004" y="3.841" class="j">emc</text><text x="6.012" y="3.841" class="o">h</text><text x="7.014" y="3.841" class="k">elp</text></svg><svg x="6400"><use xlink:href="#a"/><use xlink:href="#b" x="7.996" y="2.146"/><use xlink:href="#1"/><text y="3.841" class="i">❯</text><text x="2.004" y="3.841" class="j">emc</text><text x="6.012" y="3.841" class="o">he</text><text x="8.016" y="3.841" class="k">lp</text></svg><svg x="6560"><use xlink:href="#a"/><use xlink:href="#b" x="8.996" y="2.146"/><use xlink:href="#1"/><text y="3.841" class="i">❯</text><text x="2.004" y="3.841" class="j">emc</text><text x="6.012" y="3.841" class="o">hel</text><text x="9.018" y="3.841" class="k">p</text></svg><svg x="6720"><use xlink:href="#a"/><use xlink:href="#b" x="9.996" y="2.146"/><use xlink:href="#1"/><use xlink:href="#11" y="2.171"/></svg><svg x="6880"><use xlink:href="#a"/><use xlink:href="#b" x="-.004" y="4.317"/><use xlink:href="#1"/><use xlink:href="#11" y="2.171"/></svg><svg x="7040"><use xlink:href="#a"/><use xlink:href="#b" x="-.004" y="4.317"/><use xlink:href="#1"/><use xlink:href="#11" y="2.171"/></svg><svg x="7200"><use xlink:href="#a"/><use xlink:href="#b" x="-.004" y="4.317"/><use xlink:href="#1"/><use xlink:href="#11" y="2.171"/></svg><svg x="7360"><use xlink:href="#a"/><use xlink:href="#b" x="-.004" y="4.317"/><use xlink:href="#1"/><use xlink:href="#11" y="2.171"/></svg><svg x="7520"><use xlink:href="#a"/><use xlink:href="#b" x="-.004" y="8.659"/><use xlink:href="#1"/><use xlink:href="#11" y="2.171"/><use xlink:href="#18" y="4.342"/></svg><svg x="7680"><use xlink:href="#a"/><use xlink:href="#b" x="-.004" y="15.172"/><use xlink:href="#1"/><use xlink:href="#11" y="2.171"/><use xlink:href="#18" y="4.342"/><use xlink:href="#19" y="8.684"/><use xlink:href="#20" y="10.855"/></svg><svg x="7840"><use xlink:href="#a"/><use xlink:href="#b" x="-.004" y="32.54"/><use xlink:href="#1"/><use xlink:href="#11" y="2.171"/><use xlink:href="#18" y="4.342"/><use xlink:href="#19" y="8.684"/><use xlink:href="#20" y="10.855"/><use xlink:href="#21" y="15.197"/><use xlink:href="#22" y="17.368"/><use xlink:href="#23" y="19.539"/><use xlink:href="#24" y="21.71"/><use xlink:href="#25" y="23.881"/><use xlink:href="#26" y="26.052"/><use xlink:href="#27" y="28.223"/><use xlink:href="#28" y="30.394"/></svg><svg x="8000"><use xlink:href="#a"/><use xlink:href="#b" x="-.004" y="47.737"/><use xlink:href="#1"/><use xlink:href="#11" y="2.171"/><use xlink:href="#18" y="4.342"/><use xlink:href="#19" y="8.684"/><use xlink:href="#20" y="10.855"/><use xlink:href="#21" y="15.197"/><use xlink:href="#22" y="17.368"/><use xlink:href="#23" y="19.539"/><use xlink:href="#24" y="21.71"/><use xlink:href="#25" y="23.881"/><use xlink:href="#26" y="26.052"/><use xlink:href="#27" y="28.223"/><use xlink:href="#28" y="30.394"/><use xlink:href="#29" y="32.565"/><use xlink:href="#30" y="34.736"/><use xlink:href="#31" y="36.907"/><use xlink:href="#32" y="39.078"/><use xlink:href="#33" y="41.249"/><use xlink:href="#34" y="45.591"/></svg><svg x="8160"><use xlink:href="#a"/><use xlink:href="#b" x="-.004" y="47.737"/><use xlink:href="#1"/><use xlink:href="#11" y="2.171"/><use xlink:href="#18" y="4.342"/><use xlink:href="#19" y="8.684"/><use xlink:href="#20" y="10.855"/><use xlink:href="#21" y="15.197"/><use xlink:href="#22" y="17.368"/><use xlink:href="#23" y="19.539"/><use xlink:href="#24" y="21.71"/><use xlink:href="#25" y="23.881"/><use xlink:href="#26" y="26.052"/><use xlink:href="#27" y="28.223"/><use xlink:href="#28" y="30.394"/><use xlink:href="#29" y="32.565"/><use xlink:href="#30" y="34.736"/><use xlink:href="#31" y="36.907"/><use xlink:href="#32" y="39.078"/><use xlink:href="#33" y="41.249"/><use xlink:href="#34" y="45.591"/></svg><svg x="8320"><use xlink:href="#a"/><use xlink:href="#b" x="-.004" y="47.737"/><use xlink:href="#1"/><use xlink:href="#11" y="2.171"/><use xlink:href="#18" y="4.342"/><use xlink:href="#19" y="8.684"/><use xlink:href="#20" y="10.855"/><use xlink:href="#21" y="15.197"/><use xlink:href="#22" y="17.368"/><use xlink:href="#23" y="19.539"/><use xlink:href="#24" y="21.71"/><use xlink:href="#25" y="23.881"/><use xlink:href="#26" y="26.052"/><use xlink:href="#27" y="28.223"/><use xlink:href="#28" y="30.394"/><use xlink:href="#29" y="32.565"/><use xlink:href="#30" y="34.736"/><use xlink:href="#31" y="36.907"/><use xlink:href="#32" y="39.078"/><use xlink:href="#33" y="41.249"/><use xlink:href="#34" y="45.591"/></svg><svg x="8480"><use xlink:href="#a"/><use xlink:href="#b" x="-.004" y="47.737"/><use xlink:href="#1"/><use xlink:href="#11" y="2.171"/><use xlink:href="#18" y="4.342"/><use xlink:href="#19" y="8.684"/><use xlink:href="#20" y="10.855"/><use xlink:href="#21" y="15.197"/><use xlink:href="#22" y="17.368"/><use xlink:href="#23" y="19.539"/><use xlink:href="#24" y="21.71"/><use xlink:href="#25" y="23.881"/><use xlink:href="#26" y="26.052"/><use xlink:href="#27" y="28.223"/><use xlink:href="#28" y="30.394"/><use xlink:href="#29" y="32.565"/><use xlink:href="#30" y="34.736"/><use xlink:href="#31" y="36.907"/><use xlink:href="#32" y="39.078"/><use xlink:href="#33" y="41.249"/><use xlink:href="#34" y="45.591"/></svg><svg x="8640"><use xlink:href="#a"/><use xlink:href="#b" x="1.996" y="49.908"/><use xlink:href="#1"/><use xlink:href="#11" y="2.171"/><use xlink:href="#18" y="4.342"/><use xlink:href="#19" y="8.684"/><use xlink:href="#20" y="10.855"/><use xlink:href="#21" y="15.197"/><use xlink:href="#22" y="17.368"/><use xlink:href="#23" y="19.539"/><use xlink:href="#24" y="21.71"/><use xlink:href="#25" y="23.881"/><use xlink:href="#26" y="26.052"/><use xlink:href="#27" y="28.223"/><use xlink:href="#28" y="30.394"/><use xlink:href="#29" y="32.565"/><use xlink:href="#30" y="34.736"/><use xlink:href="#31" y="36.907"/><use xlink:href="#32" y="39.078"/><use xlink:href="#33" y="41.249"/><use xlink:href="#34" y="45.591"/><use xlink:href="#35" y="47.762"/><use xlink:href="#2" y="49.933"/></svg><svg x="8800"><use xlink:href="#a"/><use xlink:href="#b" x="-.004" y="49.908"/><use xlink:href="#1"/><use xlink:href="#11" y="2.171"/><use xlink:href="#18" y="4.342"/><use xlink:href="#19" y="8.684"/><use xlink:href="#20" y="10.855"/><use xlink:href="#21" y="15.197"/><use xlink:href="#22" y="17.368"/><use xlink:href="#23" y="19.539"/><use xlink:href="#24" y="21.71"/><use xlink:href="#25" y="23.881"/><use xlink:href="#26" y="26.052"/><use xlink:href="#27" y="28.223"/><use xlink:href="#28" y="30.394"/><use xlink:href="#29" y="32.565"/><use xlink:href="#30" y="34.736"/><use xlink:href="#31" y="36.907"/><use xlink:href="#32" y="39.078"/><use xlink:href="#33" y="41.249"/><use xlink:href="#34" y="45.591"/><use xlink:href="#35" y="47.762"/><use xlink:href="#2" y="49.933"/></svg><svg x="8960"><use xlink:href="#a"/><use xlink:href="#b" x="1.996" y="49.908"/><use xlink:href="#1"/><use xlink:href="#11" y="2.171"/><use xlink:href="#18" y="4.342"/><use xlink:href="#19" y="8.684"/><use xlink:href="#20" y="10.855"/><use xlink:href="#21" y="15.197"/><use xlink:href="#22" y="17.368"/><use xlink:href="#23" y="19.539"/><use xlink:href="#24" y="21.71"/><use xlink:href="#25" y="23.881"/><use xlink:href="#26" y="26.052"/><use xlink:href="#27" y="28.223"/><use xlink:href="#28" y="30.394"/><use xlink:href="#29" y="32.565"/><use xlink:href="#30" y="34.736"/><use xlink:href="#31" y="36.907"/><use xlink:href="#32" y="39.078"/><use xlink:href="#33" y="41.249"/><use xlink:href="#34" y="45.591"/><use xlink:href="#35" y="47.762"/><use xlink:href="#2" y="49.933"/></svg><svg x="9120"><use xlink:href="#a"/><use xlink:href="#b" x="-.004" y="52.079"/><use xlink:href="#1"/><use xlink:href="#11" y="2.171"/><use xlink:href="#18" y="4.342"/><use xlink:href="#19" y="8.684"/><use xlink:href="#20" y="10.855"/><use xlink:href="#21" y="15.197"/><use xlink:href="#22" y="17.368"/><use xlink:href="#23" y="19.539"/><use xlink:href="#24" y="21.71"/><use xlink:href="#25" y="23.881"/><use xlink:href="#26" y="26.052"/><use xlink:href="#27" y="28.223"/><use xlink:href="#28" y="30.394"/><use xlink:href="#29" y="32.565"/><use xlink:href="#30" y="34.736"/><use xlink:href="#31" y="36.907"/><use xlink:href="#32" y="39.078"/><use xlink:href="#33" y="41.249"/><use xlink:href="#34" y="45.591"/><use xlink:href="#35" y="47.762"/><use xlink:href="#2" y="49.933"/></svg><svg x="9280"><use xlink:href="#a"/><use xlink:href="#b" x="-.004" y="52.079"/><use xlink:href="#1"/><use xlink:href="#11" y="2.171"/><use xlink:href="#18" y="4.342"/><use xlink:href="#19" y="8.684"/><use xlink:href="#20" y="10.855"/><use xlink:href="#21" y="15.197"/><use xlink:href="#22" y="17.368"/><use xlink:href="#23" y="19.539"/><use xlink:href="#24" y="21.71"/><use xlink:href="#25" y="23.881"/><use xlink:href="#26" y="26.052"/><use xlink:href="#27" y="28.223"/><use xlink:href="#28" y="30.394"/><use xlink:href="#29" y="32.565"/><use xlink:href="#30" y="34.736"/><use xlink:href="#31" y="36.907"/><use xlink:href="#32" y="39.078"/><use xlink:href="#33" y="41.249"/><use xlink:href="#34" y="45.591"/><use xlink:href="#35" y="47.762"/><use xlink:href="#2" y="49.933"/></svg><svg x="9440"><use xlink:href="#a"/><use xlink:href="#b" x="-.004" y="52.079"/><use xlink:href="#1"/><use xlink:href="#11" y="2.171"/><use xlink:href="#18" y="4.342"/><use xlink:href="#19" y="8.684"/><use xlink:href="#20" y="10.855"/><use xlink:href="#21" y="15.197"/><use xlink:href="#22" y="17.368"/><use xlink:href="#23" y="19.539"/><use xlink:href="#24" y="21.71"/><use xlink:href="#25" y="23.881"/><use xlink:href="#26" y="26.052"/><use xlink:href="#27" y="28.223"/><use xlink:href="#28" y="30.394"/><use xlink:href="#29" y="32.565"/><use xlink:href="#30" y="34.736"/><use xlink:href="#31" y="36.907"/><use xlink:href="#32" y="39.078"/><use xlink:href="#33" y="41.249"/><use xlink:href="#34" y="45.591"/><use xlink:href="#35" y="47.762"/><use xlink:href="#2" y="49.933"/></svg></svg></g></g></svg></svg>