<?xml version="1.0"?>
<svg xmlns="http://www.w3.org/2000/svg" width="512" height="512" viewBox="0 0 512 512"><g><path d="M464,128h-.21l-36.03.93a120.254,120.254,0,0,0-14.93-33.7l18.15-20.29a8,8,0,0,0-.3-10.99L408.05,41.32a8,8,0,0,0-10.99-.3L376.77,59.17a120.636,120.636,0,0,0-39.39-16.33l-1.51-27.17a8,8,0,0,0-7.99-7.55h-32a8.011,8.011,0,0,0-7.99,7.55l-1.51,27.17a120.636,120.636,0,0,0-39.39,16.33L226.71,41.02a8.014,8.014,0,0,0-11,.3L193.09,63.95a8,8,0,0,0-.31,10.99l18.15,20.29a120.458,120.458,0,0,0-14.94,33.73L48,128A40.04,40.04,0,0,0,8,168V392a40.04,40.04,0,0,0,40,40H204.68l-11.33,32H160a8,8,0,0,0-8,8v24a8,8,0,0,0,8,8H352a8,8,0,0,0,8-8V472a8,8,0,0,0-8-8H317.65l-11.33-32H464a40.04,40.04,0,0,0,40-40V168A40.04,40.04,0,0,0,464,128ZM175.88,151.69l25.87-1.44a8,8,0,0,0,7.45-6.72,104.189,104.189,0,0,1,18.35-44.28,7.986,7.986,0,0,0-.52-10.02L209.75,69.91l11.93-11.92,19.31,17.28a8,8,0,0,0,10.02.52,104.064,104.064,0,0,1,44.28-18.35,8,8,0,0,0,6.72-7.46l1.44-25.86h16.86l1.44,25.87a8.009,8.009,0,0,0,6.72,7.45,104.064,104.064,0,0,1,44.28,18.35,8,8,0,0,0,10.02-.52l19.32-17.28,11.92,11.92L396.73,89.23a8,8,0,0,0-.52,10.02,104.064,104.064,0,0,1,18.35,44.28,8.009,8.009,0,0,0,7.45,6.72l25.87,1.44v16.86l-25.86,1.44a8,8,0,0,0-7.46,6.72,104.064,104.064,0,0,1-18.35,44.28,8,8,0,0,0,.52,10.02l17.28,19.31-11.92,11.93-19.32-17.28a7.986,7.986,0,0,0-10.02-.52,104.047,104.047,0,0,1-44.28,18.34,8.01,8.01,0,0,0-6.72,7.46l-1.44,25.87H303.45l-1.44-25.87a8,8,0,0,0-6.72-7.46,103.922,103.922,0,0,1-44.28-18.34,7.986,7.986,0,0,0-10.02.52l-19.31,17.28-11.93-11.93,17.28-19.31a7.986,7.986,0,0,0,.52-10.02,104.189,104.189,0,0,1-18.35-44.28,7.99,7.99,0,0,0-7.45-6.72l-25.87-1.44ZM344,480v8H168v-8ZM210.32,464l11.33-32h67.7l11.33,32ZM488,392a24.032,24.032,0,0,1-24,24H48a24.032,24.032,0,0,1-24-24v-8H488Zm0-24H24V168a24.021,24.021,0,0,1,23.95-24l111.93.73v31.39a8.012,8.012,0,0,0,7.56,7.99l27.17,1.51a120.4,120.4,0,0,0,16.32,39.39l-18.15,20.28a8,8,0,0,0,.31,10.99l22.62,22.63a8.015,8.015,0,0,0,11,.31l20.28-18.15a120.4,120.4,0,0,0,39.39,16.32l1.51,27.17a8.012,8.012,0,0,0,7.99,7.56h32a8.005,8.005,0,0,0,7.99-7.56l1.51-27.17a120.4,120.4,0,0,0,39.39-16.32l20.29,18.15a8,8,0,0,0,10.99-.31l22.63-22.63a8,8,0,0,0,.3-10.99L412.83,225a120.494,120.494,0,0,0,16.33-39.38l27.17-1.51a8.011,8.011,0,0,0,7.55-7.99V144.01l.21-.01A24.032,24.032,0,0,1,488,168Z"/><path d="M104,392H48a8,8,0,0,0,0,16h56a8,8,0,0,0,0-16Z"/><path d="M136,392h-8a8,8,0,0,0,0,16h8a8,8,0,0,0,0-16Z"/><path d="M266.627,205.373a64,64,0,1,0,0-90.511A63.8,63.8,0,0,0,266.627,205.373Zm11.314-79.2a48,48,0,1,1,0,67.882A47.682,47.682,0,0,1,277.941,126.177Z"/><path d="M249.656,222.344a88,88,0,1,0-25.774-62.227A87.426,87.426,0,0,0,249.656,222.344Zm11.315-113.138a72,72,0,1,1-21.089,50.911A71.768,71.768,0,0,1,260.971,109.206Z"/><path d="M89.344,340.438a8,8,0,1,0,13.312-8.876L89.615,312l13.041-19.562a8,8,0,1,0-13.312-8.876l-16,24a8,8,0,0,0,0,8.876Z"/><path d="M155.562,342.656a8,8,0,0,0,11.094-2.218l16-24a8,8,0,0,0,0-8.876l-16-24a8,8,0,1,0-13.312,8.876L166.385,312l-13.041,19.562A8,8,0,0,0,155.562,342.656Z"/><path d="M117.47,343.59a8,8,0,0,0,10.12-5.06l16-48a8,8,0,0,0-15.18-5.06l-16,48A8,8,0,0,0,117.47,343.59Z"/></g></svg>
